<svg xmlns="http://www.w3.org/2000/svg" xmlns:xlink="http://www.w3.org/1999/xlink" width="500" zoomAndPan="magnify" viewBox="0 0 375 374.999991" height="500" preserveAspectRatio="xMidYMid meet" version="1.0"><defs><clipPath id="5393cdfe7f"><path d="M 20.300781 0.113281 L 354.800781 0.113281 L 354.800781 375 L 20.300781 375 Z M 20.300781 0.113281 " clip-rule="nonzero"/></clipPath></defs><g clip-path="url(#5393cdfe7f)"><path fill="#e11a20" d="M 42.640625 293.671875 L 64.644531 293.671875 L 64.644531 316.011719 C 49.875 316.011719 35.070312 316.011719 20.300781 316.011719 L 20.300781 187.96875 C 75.890625 156.628906 131.515625 125.292969 187.105469 93.957031 L 201.761719 111.3125 L 101.640625 167.761719 L 101.640625 293.671875 L 332.355469 293.671875 L 332.355469 152.058594 L 267.019531 74.539062 L 234.445312 92.90625 L 295.695312 165.515625 L 295.695312 279.015625 L 273.355469 279.015625 L 273.355469 173.609375 L 151.15625 28.625 L 101.640625 56.546875 L 101.640625 125.332031 L 79.300781 137.925781 L 79.300781 43.503906 L 156.253906 0.136719 L 219.789062 75.515625 L 272.082031 46.054688 L 354.695312 143.699219 L 354.695312 316.011719 C 335.015625 316.011719 315.375 316.011719 295.695312 316.011719 L 295.695312 374.976562 L 79.300781 374.976562 L 79.300781 180.359375 L 42.679688 201.011719 L 42.679688 293.671875 Z M 101.640625 316.011719 L 101.640625 352.710938 L 273.355469 352.710938 L 273.355469 316.011719 Z M 101.640625 316.011719 " fill-opacity="1" fill-rule="nonzero"/></g><path fill="#e11a20" d="M 159.105469 192.691406 L 181.371094 192.691406 L 181.371094 214.957031 L 159.105469 214.957031 Z M 193.625 227.214844 L 215.890625 227.214844 L 215.890625 249.480469 L 193.625 249.480469 Z M 193.625 192.691406 L 215.890625 192.691406 L 215.890625 214.957031 L 193.625 214.957031 Z M 159.105469 227.214844 L 181.371094 227.214844 L 181.371094 249.480469 L 159.105469 249.480469 Z M 159.105469 227.214844 " fill-opacity="1" fill-rule="evenodd"/></svg>