<svg xmlns="http://www.w3.org/2000/svg" xmlns:xlink="http://www.w3.org/1999/xlink" width="500" zoomAndPan="magnify" viewBox="0 0 375 374.999991" height="500" preserveAspectRatio="xMidYMid meet" version="1.0"><defs><g/><clipPath id="cc05a87113"><path d="M 46.40625 0 L 328.40625 0 L 328.40625 316.5 L 46.40625 316.5 Z M 46.40625 0 " clip-rule="nonzero"/></clipPath></defs><g clip-path="url(#cc05a87113)"><path fill="#e11a20" d="M 65.257812 247.722656 L 83.824219 247.722656 L 83.824219 266.574219 C 71.363281 266.574219 58.867188 266.574219 46.40625 266.574219 L 46.40625 158.523438 C 93.316406 132.078125 140.257812 105.632812 187.167969 79.1875 L 199.535156 93.835938 L 115.046875 141.472656 L 115.046875 247.722656 L 309.738281 247.722656 L 309.738281 128.21875 L 254.605469 62.804688 L 227.117188 78.304688 L 278.804688 139.574219 L 278.804688 235.355469 L 259.953125 235.355469 L 259.953125 146.40625 L 156.832031 24.054688 L 115.046875 47.621094 L 115.046875 105.664062 L 96.195312 116.292969 L 96.195312 36.613281 L 161.132812 0.015625 L 214.75 63.625 L 258.875 38.765625 L 328.59375 121.164062 L 328.59375 266.574219 C 311.984375 266.574219 295.410156 266.574219 278.804688 266.574219 L 278.804688 316.332031 L 96.195312 316.332031 L 96.195312 152.101562 L 65.289062 169.53125 L 65.289062 247.722656 Z M 115.046875 266.574219 L 115.046875 297.542969 L 259.953125 297.542969 L 259.953125 266.574219 Z M 115.046875 266.574219 " fill-opacity="1" fill-rule="nonzero"/></g><path fill="#e11a20" d="M 163.539062 162.507812 L 182.328125 162.507812 L 182.328125 181.296875 L 163.539062 181.296875 Z M 192.671875 191.640625 L 211.460938 191.640625 L 211.460938 210.429688 L 192.671875 210.429688 Z M 192.671875 162.507812 L 211.460938 162.507812 L 211.460938 181.296875 L 192.671875 181.296875 Z M 163.539062 191.640625 L 182.328125 191.640625 L 182.328125 210.429688 L 163.539062 210.429688 Z M 163.539062 191.640625 " fill-opacity="1" fill-rule="evenodd"/><g fill="#000000" fill-opacity="1"><g transform="translate(3.547771, 360.585651)"><g><path d="M 3.515625 0 L 3.515625 -24.34375 L 9.375 -24.34375 L 9.375 -21.078125 L 9.84375 -20.984375 C 10.632812 -22.296875 11.5625 -23.257812 12.625 -23.875 C 13.695312 -24.5 15.066406 -24.8125 16.734375 -24.8125 C 18.566406 -24.8125 20.039062 -24.445312 21.15625 -23.71875 C 22.28125 -22.988281 23.097656 -21.925781 23.609375 -20.53125 L 24.078125 -20.53125 C 24.828125 -21.988281 25.796875 -23.066406 26.984375 -23.765625 C 28.171875 -24.460938 29.644531 -24.8125 31.40625 -24.8125 C 36.457031 -24.8125 38.984375 -22 38.984375 -16.375 L 38.984375 0 L 32.859375 0 L 32.859375 -15.609375 C 32.859375 -17.035156 32.578125 -18.0625 32.015625 -18.6875 C 31.460938 -19.320312 30.566406 -19.640625 29.328125 -19.640625 C 25.972656 -19.640625 24.296875 -17.394531 24.296875 -12.90625 L 24.296875 0 L 18.1875 0 L 18.1875 -15.609375 C 18.1875 -17.035156 17.898438 -18.0625 17.328125 -18.6875 C 16.765625 -19.320312 15.867188 -19.640625 14.640625 -19.640625 C 13.054688 -19.640625 11.820312 -19.113281 10.9375 -18.0625 C 10.0625 -17.007812 9.625 -15.335938 9.625 -13.046875 L 9.625 0 Z M 3.515625 0 "/></g></g></g><g fill="#000000" fill-opacity="1"><g transform="translate(47.404664, 360.585651)"><g><path d="M 5.390625 10.328125 C 4.335938 10.328125 3.390625 10.242188 2.546875 10.078125 C 1.703125 9.921875 1.015625 9.710938 0.484375 9.453125 L 1.453125 4.5 L 1.859375 4.375 C 2.222656 4.5625 2.675781 4.710938 3.21875 4.828125 C 3.769531 4.953125 4.332031 5.015625 4.90625 5.015625 C 5.882812 5.015625 6.703125 4.882812 7.359375 4.625 C 8.015625 4.363281 8.570312 3.9375 9.03125 3.34375 C 9.488281 2.75 9.890625 1.921875 10.234375 0.859375 L 0.53125 -24.34375 L 6.9375 -24.34375 L 12.984375 -7.421875 L 13.515625 -7.421875 L 19.40625 -24.34375 L 25.625 -24.34375 L 15.84375 1.515625 C 15.0625 3.609375 14.203125 5.289062 13.265625 6.5625 C 12.335938 7.832031 11.238281 8.773438 9.96875 9.390625 C 8.695312 10.015625 7.171875 10.328125 5.390625 10.328125 Z M 5.390625 10.328125 "/></g></g></g><g fill="#000000" fill-opacity="1"><g transform="translate(75.569854, 360.585651)"><g><path d="M 17.015625 0.46875 C 13.910156 0.46875 11.601562 -0.695312 10.09375 -3.03125 L 9.625 -2.9375 L 9.625 0 L 3.515625 0 L 3.515625 -34.125 L 9.625 -34.125 L 9.625 -21.46875 L 10.09375 -21.390625 C 10.925781 -22.546875 11.910156 -23.40625 13.046875 -23.96875 C 14.191406 -24.53125 15.5625 -24.8125 17.15625 -24.8125 C 19.125 -24.8125 20.84375 -24.347656 22.3125 -23.421875 C 23.78125 -22.492188 24.925781 -21.082031 25.75 -19.1875 C 26.582031 -17.300781 27 -14.957031 27 -12.15625 C 27 -9.394531 26.570312 -7.066406 25.71875 -5.171875 C 24.863281 -3.285156 23.6875 -1.875 22.1875 -0.9375 C 20.6875 0 18.960938 0.46875 17.015625 0.46875 Z M 15.15625 -4.71875 C 16.957031 -4.71875 18.328125 -5.316406 19.265625 -6.515625 C 20.210938 -7.722656 20.6875 -9.601562 20.6875 -12.15625 C 20.6875 -14.738281 20.210938 -16.628906 19.265625 -17.828125 C 18.328125 -19.023438 16.957031 -19.625 15.15625 -19.625 C 13.4375 -19.625 12.070312 -19.003906 11.0625 -17.765625 C 10.0625 -16.523438 9.5625 -14.65625 9.5625 -12.15625 C 9.5625 -9.65625 10.0625 -7.789062 11.0625 -6.5625 C 12.070312 -5.332031 13.4375 -4.71875 15.15625 -4.71875 Z M 15.15625 -4.71875 "/></g></g></g><g fill="#000000" fill-opacity="1"><g transform="translate(106.75863, 360.585651)"><g><path d="M 9.484375 0.46875 C 7.929688 0.46875 6.578125 0.179688 5.421875 -0.390625 C 4.273438 -0.972656 3.394531 -1.816406 2.78125 -2.921875 C 2.164062 -4.035156 1.859375 -5.375 1.859375 -6.9375 C 1.859375 -8.375 2.164062 -9.582031 2.78125 -10.5625 C 3.394531 -11.539062 4.347656 -12.34375 5.640625 -12.96875 C 6.941406 -13.59375 8.640625 -14.070312 10.734375 -14.40625 C 12.179688 -14.644531 13.285156 -14.90625 14.046875 -15.1875 C 14.804688 -15.46875 15.316406 -15.785156 15.578125 -16.140625 C 15.847656 -16.492188 15.984375 -16.941406 15.984375 -17.484375 C 15.984375 -18.265625 15.707031 -18.859375 15.15625 -19.265625 C 14.613281 -19.679688 13.710938 -19.890625 12.453125 -19.890625 C 11.097656 -19.890625 9.804688 -19.585938 8.578125 -18.984375 C 7.359375 -18.378906 6.300781 -17.582031 5.40625 -16.59375 L 4.96875 -16.59375 L 2.40625 -20.453125 C 3.644531 -21.828125 5.148438 -22.894531 6.921875 -23.65625 C 8.703125 -24.425781 10.644531 -24.8125 12.75 -24.8125 C 15.976562 -24.8125 18.3125 -24.125 19.75 -22.75 C 21.195312 -21.382812 21.921875 -19.441406 21.921875 -16.921875 L 21.921875 -6.359375 C 21.921875 -5.265625 22.398438 -4.71875 23.359375 -4.71875 C 23.722656 -4.71875 24.082031 -4.785156 24.4375 -4.921875 L 24.75 -4.828125 L 25.1875 -0.578125 C 24.84375 -0.359375 24.367188 -0.175781 23.765625 -0.03125 C 23.160156 0.101562 22.5 0.171875 21.78125 0.171875 C 20.320312 0.171875 19.1875 -0.101562 18.375 -0.65625 C 17.5625 -1.21875 16.976562 -2.09375 16.625 -3.28125 L 16.15625 -3.328125 C 14.96875 -0.796875 12.742188 0.46875 9.484375 0.46875 Z M 11.4375 -4.109375 C 12.84375 -4.109375 13.96875 -4.582031 14.8125 -5.53125 C 15.664062 -6.476562 16.09375 -7.796875 16.09375 -9.484375 L 16.09375 -11.96875 L 15.671875 -12.046875 C 15.304688 -11.753906 14.820312 -11.507812 14.21875 -11.3125 C 13.625 -11.113281 12.769531 -10.921875 11.65625 -10.734375 C 10.332031 -10.503906 9.378906 -10.117188 8.796875 -9.578125 C 8.210938 -9.046875 7.921875 -8.289062 7.921875 -7.3125 C 7.921875 -6.257812 8.226562 -5.460938 8.84375 -4.921875 C 9.46875 -4.378906 10.332031 -4.109375 11.4375 -4.109375 Z M 11.4375 -4.109375 "/></g></g></g><g fill="#000000" fill-opacity="1"><g transform="translate(134.460357, 360.585651)"><g><path d="M 3.515625 0 L 3.515625 -24.34375 L 9.375 -24.34375 L 9.375 -20.765625 L 9.84375 -20.65625 C 11.363281 -23.425781 13.820312 -24.8125 17.21875 -24.8125 C 20.03125 -24.8125 22.09375 -24.046875 23.40625 -22.515625 C 24.71875 -20.984375 25.375 -18.753906 25.375 -15.828125 L 25.375 0 L 19.265625 0 L 19.265625 -15.078125 C 19.265625 -16.691406 18.941406 -17.851562 18.296875 -18.5625 C 17.648438 -19.28125 16.613281 -19.640625 15.1875 -19.640625 C 13.4375 -19.640625 12.070312 -19.070312 11.09375 -17.9375 C 10.113281 -16.8125 9.625 -15.035156 9.625 -12.609375 L 9.625 0 Z M 3.515625 0 "/></g></g></g><g fill="#000000" fill-opacity="1"><g transform="translate(165.009099, 360.585651)"><g><path d="M 3.515625 0 L 3.515625 -34.125 L 9.625 -34.125 L 9.625 -15.1875 L 10.21875 -15.1875 L 17.265625 -24.34375 L 23.46875 -24.34375 L 23.46875 -23.84375 L 15.1875 -13.15625 L 24.390625 -0.546875 L 24.390625 0 L 17.9375 0 L 10.21875 -10.265625 L 9.625 -10.265625 L 9.625 0 Z M 3.515625 0 "/></g></g></g><g fill="#000000" fill-opacity="1"><g transform="translate(191.47491, 360.585651)"><g><path d="M 9.484375 0.46875 C 7.929688 0.46875 6.578125 0.179688 5.421875 -0.390625 C 4.273438 -0.972656 3.394531 -1.816406 2.78125 -2.921875 C 2.164062 -4.035156 1.859375 -5.375 1.859375 -6.9375 C 1.859375 -8.375 2.164062 -9.582031 2.78125 -10.5625 C 3.394531 -11.539062 4.347656 -12.34375 5.640625 -12.96875 C 6.941406 -13.59375 8.640625 -14.070312 10.734375 -14.40625 C 12.179688 -14.644531 13.285156 -14.90625 14.046875 -15.1875 C 14.804688 -15.46875 15.316406 -15.785156 15.578125 -16.140625 C 15.847656 -16.492188 15.984375 -16.941406 15.984375 -17.484375 C 15.984375 -18.265625 15.707031 -18.859375 15.15625 -19.265625 C 14.613281 -19.679688 13.710938 -19.890625 12.453125 -19.890625 C 11.097656 -19.890625 9.804688 -19.585938 8.578125 -18.984375 C 7.359375 -18.378906 6.300781 -17.582031 5.40625 -16.59375 L 4.96875 -16.59375 L 2.40625 -20.453125 C 3.644531 -21.828125 5.148438 -22.894531 6.921875 -23.65625 C 8.703125 -24.425781 10.644531 -24.8125 12.75 -24.8125 C 15.976562 -24.8125 18.3125 -24.125 19.75 -22.75 C 21.195312 -21.382812 21.921875 -19.441406 21.921875 -16.921875 L 21.921875 -6.359375 C 21.921875 -5.265625 22.398438 -4.71875 23.359375 -4.71875 C 23.722656 -4.71875 24.082031 -4.785156 24.4375 -4.921875 L 24.75 -4.828125 L 25.1875 -0.578125 C 24.84375 -0.359375 24.367188 -0.175781 23.765625 -0.03125 C 23.160156 0.101562 22.5 0.171875 21.78125 0.171875 C 20.320312 0.171875 19.1875 -0.101562 18.375 -0.65625 C 17.5625 -1.21875 16.976562 -2.09375 16.625 -3.28125 L 16.15625 -3.328125 C 14.96875 -0.796875 12.742188 0.46875 9.484375 0.46875 Z M 11.4375 -4.109375 C 12.84375 -4.109375 13.96875 -4.582031 14.8125 -5.53125 C 15.664062 -6.476562 16.09375 -7.796875 16.09375 -9.484375 L 16.09375 -11.96875 L 15.671875 -12.046875 C 15.304688 -11.753906 14.820312 -11.507812 14.21875 -11.3125 C 13.625 -11.113281 12.769531 -10.921875 11.65625 -10.734375 C 10.332031 -10.503906 9.378906 -10.117188 8.796875 -9.578125 C 8.210938 -9.046875 7.921875 -8.289062 7.921875 -7.3125 C 7.921875 -6.257812 8.226562 -5.460938 8.84375 -4.921875 C 9.46875 -4.378906 10.332031 -4.109375 11.4375 -4.109375 Z M 11.4375 -4.109375 "/></g></g></g><g fill="#000000" fill-opacity="1"><g transform="translate(219.176648, 360.585651)"><g><path d="M 11.140625 0.46875 C 8.410156 0.46875 6.394531 -0.273438 5.09375 -1.765625 C 3.789062 -3.265625 3.140625 -5.410156 3.140625 -8.203125 L 3.140625 -24.34375 L 9.25 -24.34375 L 9.25 -8.984375 C 9.25 -7.492188 9.566406 -6.40625 10.203125 -5.71875 C 10.847656 -5.039062 11.835938 -4.703125 13.171875 -4.703125 C 14.867188 -4.703125 16.1875 -5.253906 17.125 -6.359375 C 18.070312 -7.472656 18.546875 -9.222656 18.546875 -11.609375 L 18.546875 -24.34375 L 24.65625 -24.34375 L 24.65625 0 L 18.78125 0 L 18.78125 -3.578125 L 18.3125 -3.6875 C 17.539062 -2.289062 16.585938 -1.25 15.453125 -0.5625 C 14.328125 0.125 12.890625 0.46875 11.140625 0.46875 Z M 11.140625 0.46875 "/></g></g></g><g fill="#000000" fill-opacity="1"><g transform="translate(249.372248, 360.585651)"><g><path d="M 14.1875 0.46875 C 11.832031 0.46875 9.75 -0.0195312 7.9375 -1 C 6.132812 -1.976562 4.722656 -3.414062 3.703125 -5.3125 C 2.691406 -7.21875 2.1875 -9.5 2.1875 -12.15625 C 2.1875 -14.832031 2.691406 -17.117188 3.703125 -19.015625 C 4.722656 -20.921875 6.128906 -22.363281 7.921875 -23.34375 C 9.710938 -24.320312 11.765625 -24.8125 14.078125 -24.8125 C 19.210938 -24.8125 22.503906 -22.945312 23.953125 -19.21875 L 19.75 -16.21875 L 19.296875 -16.21875 C 18.796875 -17.363281 18.144531 -18.21875 17.34375 -18.78125 C 16.539062 -19.34375 15.453125 -19.625 14.078125 -19.625 C 12.316406 -19.625 10.941406 -19.007812 9.953125 -17.78125 C 8.960938 -16.5625 8.46875 -14.6875 8.46875 -12.15625 C 8.46875 -9.65625 8.96875 -7.789062 9.96875 -6.5625 C 10.976562 -5.332031 12.382812 -4.71875 14.1875 -4.71875 C 15.507812 -4.71875 16.628906 -5.070312 17.546875 -5.78125 C 18.472656 -6.5 19.132812 -7.53125 19.53125 -8.875 L 20 -8.921875 L 24.34375 -6.53125 C 23.726562 -4.46875 22.582031 -2.785156 20.90625 -1.484375 C 19.238281 -0.179688 17 0.46875 14.1875 0.46875 Z M 14.1875 0.46875 "/></g></g></g><g fill="#000000" fill-opacity="1"><g transform="translate(276.500169, 360.585651)"><g><path d="M 16.796875 -5.8125 L 18.390625 -1.28125 C 17.722656 -0.738281 16.890625 -0.3125 15.890625 0 C 14.890625 0.3125 13.757812 0.46875 12.5 0.46875 C 9.863281 0.46875 7.859375 -0.25 6.484375 -1.6875 C 5.117188 -3.125 4.4375 -5.210938 4.4375 -7.953125 L 4.4375 -19.515625 L 0.734375 -19.515625 L 0.734375 -24.375 L 4.4375 -24.375 L 4.4375 -29.109375 L 10.546875 -30.109375 L 10.546875 -24.375 L 17.453125 -24.375 L 17.453125 -19.515625 L 10.546875 -19.515625 L 10.546875 -8.390625 C 10.546875 -7.179688 10.796875 -6.300781 11.296875 -5.75 C 11.796875 -5.195312 12.523438 -4.921875 13.484375 -4.921875 C 14.578125 -4.921875 15.523438 -5.21875 16.328125 -5.8125 Z M 16.796875 -5.8125 "/></g></g></g><g fill="#000000" fill-opacity="1"><g transform="translate(297.448509, 360.585651)"><g><path d="M 6.5625 -27.265625 C 5.457031 -27.265625 4.554688 -27.597656 3.859375 -28.265625 C 3.171875 -28.929688 2.828125 -29.796875 2.828125 -30.859375 C 2.828125 -31.898438 3.171875 -32.753906 3.859375 -33.421875 C 4.554688 -34.097656 5.457031 -34.4375 6.5625 -34.4375 C 7.289062 -34.4375 7.941406 -34.28125 8.515625 -33.96875 C 9.085938 -33.65625 9.53125 -33.226562 9.84375 -32.6875 C 10.164062 -32.15625 10.328125 -31.546875 10.328125 -30.859375 C 10.328125 -30.160156 10.164062 -29.539062 9.84375 -29 C 9.53125 -28.457031 9.085938 -28.03125 8.515625 -27.71875 C 7.941406 -27.414062 7.289062 -27.265625 6.5625 -27.265625 Z M 3.515625 0 L 3.515625 -24.34375 L 9.625 -24.34375 L 9.625 0 Z M 3.515625 0 "/></g></g></g><g fill="#000000" fill-opacity="1"><g transform="translate(312.592429, 360.585651)"><g><path d="M 14.140625 0.46875 C 11.765625 0.46875 9.675781 -0.0195312 7.875 -1 C 6.070312 -1.976562 4.671875 -3.410156 3.671875 -5.296875 C 2.679688 -7.191406 2.1875 -9.476562 2.1875 -12.15625 C 2.1875 -14.832031 2.679688 -17.117188 3.671875 -19.015625 C 4.671875 -20.921875 6.070312 -22.363281 7.875 -23.34375 C 9.675781 -24.320312 11.765625 -24.8125 14.140625 -24.8125 C 16.523438 -24.8125 18.617188 -24.320312 20.421875 -23.34375 C 22.222656 -22.363281 23.625 -20.921875 24.625 -19.015625 C 25.632812 -17.117188 26.140625 -14.832031 26.140625 -12.15625 C 26.140625 -9.476562 25.632812 -7.191406 24.625 -5.296875 C 23.625 -3.410156 22.222656 -1.976562 20.421875 -1 C 18.617188 -0.0195312 16.523438 0.46875 14.140625 0.46875 Z M 14.140625 -4.71875 C 17.929688 -4.71875 19.828125 -7.195312 19.828125 -12.15625 C 19.828125 -14.738281 19.335938 -16.628906 18.359375 -17.828125 C 17.390625 -19.023438 15.984375 -19.625 14.140625 -19.625 C 10.359375 -19.625 8.46875 -17.132812 8.46875 -12.15625 C 8.46875 -7.195312 10.359375 -4.71875 14.140625 -4.71875 Z M 14.140625 -4.71875 "/></g></g></g><g fill="#000000" fill-opacity="1"><g transform="translate(342.920461, 360.585651)"><g><path d="M 3.515625 0 L 3.515625 -24.34375 L 9.375 -24.34375 L 9.375 -20.765625 L 9.84375 -20.65625 C 11.363281 -23.425781 13.820312 -24.8125 17.21875 -24.8125 C 20.03125 -24.8125 22.09375 -24.046875 23.40625 -22.515625 C 24.71875 -20.984375 25.375 -18.753906 25.375 -15.828125 L 25.375 0 L 19.265625 0 L 19.265625 -15.078125 C 19.265625 -16.691406 18.941406 -17.851562 18.296875 -18.5625 C 17.648438 -19.28125 16.613281 -19.640625 15.1875 -19.640625 C 13.4375 -19.640625 12.070312 -19.070312 11.09375 -17.9375 C 10.113281 -16.8125 9.625 -15.035156 9.625 -12.609375 L 9.625 0 Z M 3.515625 0 "/></g></g></g></svg>