<svg xmlns="http://www.w3.org/2000/svg" xmlns:xlink="http://www.w3.org/1999/xlink" width="500" zoomAndPan="magnify" viewBox="0 0 375 374.999991" height="500" preserveAspectRatio="xMidYMid meet" version="1.0"><defs><g/><clipPath id="a04c2c7e43"><path d="M 41.566406 0 L 333.316406 0 L 333.316406 327 L 41.566406 327 Z M 41.566406 0 " clip-rule="nonzero"/></clipPath><clipPath id="c3eded9834"><rect x="0" width="346" y="0" height="55"/></clipPath></defs><g clip-path="url(#a04c2c7e43)"><path fill="#e11a20" d="M 61.066406 256.21875 L 80.269531 256.21875 L 80.269531 275.714844 C 67.378906 275.714844 54.457031 275.714844 41.566406 275.714844 L 41.566406 163.960938 C 90.082031 136.609375 138.632812 109.257812 187.152344 81.910156 L 199.941406 97.054688 L 112.558594 146.324219 L 112.558594 256.21875 L 313.921875 256.21875 L 313.921875 132.617188 L 256.898438 64.960938 L 228.46875 80.992188 L 281.925781 144.363281 L 281.925781 243.425781 L 262.429688 243.425781 L 262.429688 151.429688 L 155.777344 24.886719 L 112.558594 49.257812 L 112.558594 109.292969 L 93.0625 120.285156 L 93.0625 37.875 L 160.226562 0.0234375 L 215.679688 65.8125 L 261.316406 40.097656 L 333.421875 125.324219 L 333.421875 275.714844 C 316.246094 275.714844 299.101562 275.714844 281.925781 275.714844 L 281.925781 327.175781 L 93.0625 327.175781 L 93.0625 157.316406 L 61.097656 175.34375 L 61.097656 256.21875 Z M 112.558594 275.714844 L 112.558594 307.746094 L 262.429688 307.746094 L 262.429688 275.714844 Z M 112.558594 275.714844 " fill-opacity="1" fill-rule="nonzero"/></g><path fill="#e11a20" d="M 162.710938 168.082031 L 182.144531 168.082031 L 182.144531 187.515625 L 162.710938 187.515625 Z M 192.84375 198.210938 L 212.277344 198.210938 L 212.277344 217.644531 L 192.84375 217.644531 Z M 192.84375 168.082031 L 212.277344 168.082031 L 212.277344 187.515625 L 192.84375 187.515625 Z M 162.710938 198.210938 L 182.144531 198.210938 L 182.144531 217.644531 L 162.710938 217.644531 Z M 162.710938 198.210938 " fill-opacity="1" fill-rule="evenodd"/><g transform="matrix(1, 0, 0, 1, 16, 320)"><g clip-path="url(#c3eded9834)"><g fill="#ffffff" fill-opacity="1"><g transform="translate(0.362999, 42.855319)"><g><path d="M 3.125 0 L 3.125 -21.6875 L 8.359375 -21.6875 L 8.359375 -18.78125 L 8.765625 -18.703125 C 9.472656 -19.867188 10.300781 -20.726562 11.25 -21.28125 C 12.207031 -21.832031 13.425781 -22.109375 14.90625 -22.109375 C 16.550781 -22.109375 17.867188 -21.78125 18.859375 -21.125 C 19.859375 -20.476562 20.585938 -19.535156 21.046875 -18.296875 L 21.453125 -18.296875 C 22.128906 -19.585938 22.992188 -20.546875 24.046875 -21.171875 C 25.097656 -21.796875 26.410156 -22.109375 27.984375 -22.109375 C 32.484375 -22.109375 34.734375 -19.601562 34.734375 -14.59375 L 34.734375 0 L 29.28125 0 L 29.28125 -13.90625 C 29.28125 -15.175781 29.03125 -16.09375 28.53125 -16.65625 C 28.039062 -17.21875 27.242188 -17.5 26.140625 -17.5 C 23.148438 -17.5 21.65625 -15.5 21.65625 -11.5 L 21.65625 0 L 16.203125 0 L 16.203125 -13.90625 C 16.203125 -15.175781 15.945312 -16.09375 15.4375 -16.65625 C 14.9375 -17.21875 14.140625 -17.5 13.046875 -17.5 C 11.640625 -17.5 10.539062 -17.03125 9.75 -16.09375 C 8.96875 -15.15625 8.578125 -13.664062 8.578125 -11.625 L 8.578125 0 Z M 3.125 0 "/></g></g></g><g fill="#ffffff" fill-opacity="1"><g transform="translate(40.64521, 42.855319)"><g><path d="M 4.796875 9.203125 C 3.867188 9.203125 3.023438 9.128906 2.265625 8.984375 C 1.515625 8.835938 0.90625 8.648438 0.4375 8.421875 L 1.296875 4.015625 L 1.65625 3.890625 C 1.976562 4.066406 2.378906 4.207031 2.859375 4.3125 C 3.347656 4.414062 3.847656 4.46875 4.359375 4.46875 C 5.242188 4.46875 5.976562 4.351562 6.5625 4.125 C 7.144531 3.894531 7.640625 3.515625 8.046875 2.984375 C 8.453125 2.453125 8.8125 1.710938 9.125 0.765625 L 0.46875 -21.6875 L 6.171875 -21.6875 L 11.5625 -6.609375 L 12.03125 -6.609375 L 17.28125 -21.6875 L 22.828125 -21.6875 L 14.125 1.359375 C 13.425781 3.222656 12.660156 4.71875 11.828125 5.84375 C 10.992188 6.976562 10.007812 7.820312 8.875 8.375 C 7.738281 8.925781 6.378906 9.203125 4.796875 9.203125 Z M 4.796875 9.203125 "/></g></g></g><g fill="#ffffff" fill-opacity="1"><g transform="translate(66.947207, 42.855319)"><g><path d="M 15.171875 0.40625 C 12.398438 0.40625 10.335938 -0.625 8.984375 -2.6875 L 8.578125 -2.609375 L 8.578125 0 L 3.125 0 L 3.125 -30.40625 L 8.578125 -30.40625 L 8.578125 -19.140625 L 8.984375 -19.0625 C 9.734375 -20.09375 10.613281 -20.859375 11.625 -21.359375 C 12.644531 -21.859375 13.863281 -22.109375 15.28125 -22.109375 C 17.039062 -22.109375 18.578125 -21.691406 19.890625 -20.859375 C 21.203125 -20.035156 22.222656 -18.78125 22.953125 -17.09375 C 23.679688 -15.414062 24.046875 -13.332031 24.046875 -10.84375 C 24.046875 -8.375 23.664062 -6.296875 22.90625 -4.609375 C 22.144531 -2.921875 21.097656 -1.660156 19.765625 -0.828125 C 18.429688 -0.00390625 16.898438 0.40625 15.171875 0.40625 Z M 13.515625 -4.203125 C 15.109375 -4.203125 16.320312 -4.738281 17.15625 -5.8125 C 18 -6.882812 18.421875 -8.5625 18.421875 -10.84375 C 18.421875 -13.132812 18 -14.8125 17.15625 -15.875 C 16.320312 -16.945312 15.109375 -17.484375 13.515625 -17.484375 C 11.984375 -17.484375 10.765625 -16.929688 9.859375 -15.828125 C 8.960938 -14.734375 8.515625 -13.070312 8.515625 -10.84375 C 8.515625 -8.613281 8.960938 -6.945312 9.859375 -5.84375 C 10.765625 -4.75 11.984375 -4.203125 13.515625 -4.203125 Z M 13.515625 -4.203125 "/></g></g></g><g fill="#ffffff" fill-opacity="1"><g transform="translate(95.943018, 42.855319)"><g><path d="M 8.453125 0.40625 C 7.066406 0.40625 5.859375 0.148438 4.828125 -0.359375 C 3.804688 -0.867188 3.019531 -1.617188 2.46875 -2.609375 C 1.925781 -3.597656 1.65625 -4.785156 1.65625 -6.171875 C 1.65625 -7.460938 1.925781 -8.539062 2.46875 -9.40625 C 3.019531 -10.28125 3.875 -10.992188 5.03125 -11.546875 C 6.1875 -12.109375 7.695312 -12.539062 9.5625 -12.84375 C 10.851562 -13.050781 11.835938 -13.28125 12.515625 -13.53125 C 13.191406 -13.78125 13.644531 -14.0625 13.875 -14.375 C 14.113281 -14.6875 14.234375 -15.085938 14.234375 -15.578125 C 14.234375 -16.273438 13.988281 -16.804688 13.5 -17.171875 C 13.019531 -17.535156 12.21875 -17.71875 11.09375 -17.71875 C 9.882812 -17.71875 8.734375 -17.445312 7.640625 -16.90625 C 6.554688 -16.375 5.613281 -15.671875 4.8125 -14.796875 L 4.421875 -14.796875 L 2.140625 -18.234375 C 3.242188 -19.453125 4.585938 -20.398438 6.171875 -21.078125 C 7.765625 -21.765625 9.5 -22.109375 11.375 -22.109375 C 14.238281 -22.109375 16.3125 -21.5 17.59375 -20.28125 C 18.882812 -19.0625 19.53125 -17.328125 19.53125 -15.078125 L 19.53125 -5.671875 C 19.53125 -4.691406 19.957031 -4.203125 20.8125 -4.203125 C 21.132812 -4.203125 21.453125 -4.265625 21.765625 -4.390625 L 22.046875 -4.3125 L 22.4375 -0.515625 C 22.132812 -0.316406 21.710938 -0.15625 21.171875 -0.03125 C 20.640625 0.09375 20.050781 0.15625 19.40625 0.15625 C 18.113281 0.15625 17.101562 -0.09375 16.375 -0.59375 C 15.644531 -1.09375 15.125 -1.875 14.8125 -2.9375 L 14.390625 -2.96875 C 13.328125 -0.71875 11.347656 0.40625 8.453125 0.40625 Z M 10.1875 -3.65625 C 11.445312 -3.65625 12.453125 -4.078125 13.203125 -4.921875 C 13.960938 -5.773438 14.34375 -6.953125 14.34375 -8.453125 L 14.34375 -10.65625 L 13.96875 -10.734375 C 13.632812 -10.472656 13.203125 -10.253906 12.671875 -10.078125 C 12.140625 -9.898438 11.378906 -9.726562 10.390625 -9.5625 C 9.203125 -9.363281 8.347656 -9.023438 7.828125 -8.546875 C 7.316406 -8.066406 7.0625 -7.390625 7.0625 -6.515625 C 7.0625 -5.578125 7.335938 -4.863281 7.890625 -4.375 C 8.441406 -3.894531 9.207031 -3.65625 10.1875 -3.65625 Z M 10.1875 -3.65625 "/></g></g></g><g fill="#ffffff" fill-opacity="1"><g transform="translate(121.832101, 42.855319)"><g><path d="M 3.125 0 L 3.125 -21.6875 L 8.359375 -21.6875 L 8.359375 -18.515625 L 8.765625 -18.40625 C 10.117188 -20.875 12.3125 -22.109375 15.34375 -22.109375 C 17.84375 -22.109375 19.679688 -21.425781 20.859375 -20.0625 C 22.035156 -18.695312 22.625 -16.710938 22.625 -14.109375 L 22.625 0 L 17.171875 0 L 17.171875 -13.4375 C 17.171875 -14.875 16.878906 -15.910156 16.296875 -16.546875 C 15.722656 -17.179688 14.800781 -17.5 13.53125 -17.5 C 11.96875 -17.5 10.75 -16.992188 9.875 -15.984375 C 9.007812 -14.972656 8.578125 -13.390625 8.578125 -11.234375 L 8.578125 0 Z M 3.125 0 "/></g></g></g><g fill="#ffffff" fill-opacity="1"><g transform="translate(150.257684, 42.855319)"><g><path d="M 3.125 0 L 3.125 -30.40625 L 8.578125 -30.40625 L 8.578125 -13.53125 L 9.109375 -13.53125 L 15.375 -21.6875 L 20.90625 -21.6875 L 20.90625 -21.234375 L 13.53125 -11.71875 L 21.734375 -0.484375 L 21.734375 0 L 15.984375 0 L 9.109375 -9.140625 L 8.578125 -9.140625 L 8.578125 0 Z M 3.125 0 "/></g></g></g><g fill="#ffffff" fill-opacity="1"><g transform="translate(175.045648, 42.855319)"><g><path d="M 8.453125 0.40625 C 7.066406 0.40625 5.859375 0.148438 4.828125 -0.359375 C 3.804688 -0.867188 3.019531 -1.617188 2.46875 -2.609375 C 1.925781 -3.597656 1.65625 -4.785156 1.65625 -6.171875 C 1.65625 -7.460938 1.925781 -8.539062 2.46875 -9.40625 C 3.019531 -10.28125 3.875 -10.992188 5.03125 -11.546875 C 6.1875 -12.109375 7.695312 -12.539062 9.5625 -12.84375 C 10.851562 -13.050781 11.835938 -13.28125 12.515625 -13.53125 C 13.191406 -13.78125 13.644531 -14.0625 13.875 -14.375 C 14.113281 -14.6875 14.234375 -15.085938 14.234375 -15.578125 C 14.234375 -16.273438 13.988281 -16.804688 13.5 -17.171875 C 13.019531 -17.535156 12.21875 -17.71875 11.09375 -17.71875 C 9.882812 -17.71875 8.734375 -17.445312 7.640625 -16.90625 C 6.554688 -16.375 5.613281 -15.671875 4.8125 -14.796875 L 4.421875 -14.796875 L 2.140625 -18.234375 C 3.242188 -19.453125 4.585938 -20.398438 6.171875 -21.078125 C 7.765625 -21.765625 9.5 -22.109375 11.375 -22.109375 C 14.238281 -22.109375 16.3125 -21.5 17.59375 -20.28125 C 18.882812 -19.0625 19.53125 -17.328125 19.53125 -15.078125 L 19.53125 -5.671875 C 19.53125 -4.691406 19.957031 -4.203125 20.8125 -4.203125 C 21.132812 -4.203125 21.453125 -4.265625 21.765625 -4.390625 L 22.046875 -4.3125 L 22.4375 -0.515625 C 22.132812 -0.316406 21.710938 -0.15625 21.171875 -0.03125 C 20.640625 0.09375 20.050781 0.15625 19.40625 0.15625 C 18.113281 0.15625 17.101562 -0.09375 16.375 -0.59375 C 15.644531 -1.09375 15.125 -1.875 14.8125 -2.9375 L 14.390625 -2.96875 C 13.328125 -0.71875 11.347656 0.40625 8.453125 0.40625 Z M 10.1875 -3.65625 C 11.445312 -3.65625 12.453125 -4.078125 13.203125 -4.921875 C 13.960938 -5.773438 14.34375 -6.953125 14.34375 -8.453125 L 14.34375 -10.65625 L 13.96875 -10.734375 C 13.632812 -10.472656 13.203125 -10.253906 12.671875 -10.078125 C 12.140625 -9.898438 11.378906 -9.726562 10.390625 -9.5625 C 9.203125 -9.363281 8.347656 -9.023438 7.828125 -8.546875 C 7.316406 -8.066406 7.0625 -7.390625 7.0625 -6.515625 C 7.0625 -5.578125 7.335938 -4.863281 7.890625 -4.375 C 8.441406 -3.894531 9.207031 -3.65625 10.1875 -3.65625 Z M 10.1875 -3.65625 "/></g></g></g><g fill="#ffffff" fill-opacity="1"><g transform="translate(200.934731, 42.855319)"><g><path d="M 9.9375 0.40625 C 7.5 0.40625 5.695312 -0.253906 4.53125 -1.578125 C 3.375 -2.910156 2.796875 -4.820312 2.796875 -7.3125 L 2.796875 -21.6875 L 8.234375 -21.6875 L 8.234375 -8 C 8.234375 -6.675781 8.519531 -5.707031 9.09375 -5.09375 C 9.664062 -4.488281 10.546875 -4.1875 11.734375 -4.1875 C 13.242188 -4.1875 14.414062 -4.679688 15.25 -5.671875 C 16.09375 -6.660156 16.515625 -8.21875 16.515625 -10.34375 L 16.515625 -21.6875 L 21.96875 -21.6875 L 21.96875 0 L 16.734375 0 L 16.734375 -3.1875 L 16.328125 -3.28125 C 15.628906 -2.039062 14.773438 -1.113281 13.765625 -0.5 C 12.765625 0.101562 11.488281 0.40625 9.9375 0.40625 Z M 9.9375 0.40625 "/></g></g></g><g fill="#ffffff" fill-opacity="1"><g transform="translate(229.045708, 42.855319)"><g><path d="M 12.640625 0.40625 C 10.546875 0.40625 8.691406 -0.0234375 7.078125 -0.890625 C 5.460938 -1.765625 4.203125 -3.046875 3.296875 -4.734375 C 2.398438 -6.429688 1.953125 -8.46875 1.953125 -10.84375 C 1.953125 -13.226562 2.398438 -15.265625 3.296875 -16.953125 C 4.203125 -18.640625 5.453125 -19.921875 7.046875 -20.796875 C 8.648438 -21.671875 10.484375 -22.109375 12.546875 -22.109375 C 17.117188 -22.109375 20.050781 -20.445312 21.34375 -17.125 L 17.609375 -14.453125 L 17.1875 -14.453125 C 16.738281 -15.472656 16.15625 -16.234375 15.4375 -16.734375 C 14.726562 -17.234375 13.765625 -17.484375 12.546875 -17.484375 C 10.972656 -17.484375 9.742188 -16.9375 8.859375 -15.84375 C 7.984375 -14.757812 7.546875 -13.09375 7.546875 -10.84375 C 7.546875 -8.613281 7.992188 -6.945312 8.890625 -5.84375 C 9.785156 -4.75 11.035156 -4.203125 12.640625 -4.203125 C 13.828125 -4.203125 14.828125 -4.519531 15.640625 -5.15625 C 16.460938 -5.789062 17.050781 -6.707031 17.40625 -7.90625 L 17.8125 -7.953125 L 21.6875 -5.828125 C 21.144531 -3.984375 20.128906 -2.484375 18.640625 -1.328125 C 17.148438 -0.171875 15.148438 0.40625 12.640625 0.40625 Z M 12.640625 0.40625 "/></g></g></g><g fill="#ffffff" fill-opacity="1"><g transform="translate(254.423558, 42.855319)"><g><path d="M 14.96875 -5.171875 L 16.390625 -1.140625 C 15.796875 -0.648438 15.050781 -0.269531 14.15625 0 C 13.269531 0.269531 12.257812 0.40625 11.125 0.40625 C 8.78125 0.40625 7 -0.226562 5.78125 -1.5 C 4.5625 -2.78125 3.953125 -4.640625 3.953125 -7.078125 L 3.953125 -17.390625 L 0.65625 -17.390625 L 0.65625 -21.71875 L 3.953125 -21.71875 L 3.953125 -25.9375 L 9.40625 -26.828125 L 9.40625 -21.71875 L 15.5625 -21.71875 L 15.5625 -17.390625 L 9.40625 -17.390625 L 9.40625 -7.46875 C 9.40625 -6.394531 9.625 -5.613281 10.0625 -5.125 C 10.507812 -4.632812 11.160156 -4.390625 12.015625 -4.390625 C 12.984375 -4.390625 13.832031 -4.648438 14.5625 -5.171875 Z M 14.96875 -5.171875 "/></g></g></g><g fill="#ffffff" fill-opacity="1"><g transform="translate(274.295814, 42.855319)"><g><path d="M 5.84375 -24.296875 C 4.851562 -24.296875 4.050781 -24.59375 3.4375 -25.1875 C 2.820312 -25.78125 2.515625 -26.550781 2.515625 -27.5 C 2.515625 -28.425781 2.820312 -29.1875 3.4375 -29.78125 C 4.050781 -30.382812 4.851562 -30.6875 5.84375 -30.6875 C 6.5 -30.6875 7.082031 -30.546875 7.59375 -30.265625 C 8.101562 -29.992188 8.5 -29.617188 8.78125 -29.140625 C 9.0625 -28.660156 9.203125 -28.113281 9.203125 -27.5 C 9.203125 -26.882812 9.0625 -26.332031 8.78125 -25.84375 C 8.5 -25.351562 8.101562 -24.972656 7.59375 -24.703125 C 7.082031 -24.429688 6.5 -24.296875 5.84375 -24.296875 Z M 3.125 0 L 3.125 -21.6875 L 8.578125 -21.6875 L 8.578125 0 Z M 3.125 0 "/></g></g></g><g fill="#ffffff" fill-opacity="1"><g transform="translate(288.996751, 42.855319)"><g><path d="M 12.609375 0.40625 C 10.484375 0.40625 8.617188 -0.0234375 7.015625 -0.890625 C 5.410156 -1.765625 4.164062 -3.039062 3.28125 -4.71875 C 2.394531 -6.40625 1.953125 -8.445312 1.953125 -10.84375 C 1.953125 -13.226562 2.394531 -15.265625 3.28125 -16.953125 C 4.164062 -18.640625 5.410156 -19.921875 7.015625 -20.796875 C 8.617188 -21.671875 10.484375 -22.109375 12.609375 -22.109375 C 14.734375 -22.109375 16.597656 -21.671875 18.203125 -20.796875 C 19.804688 -19.921875 21.050781 -18.640625 21.9375 -16.953125 C 22.832031 -15.265625 23.28125 -13.226562 23.28125 -10.84375 C 23.28125 -8.445312 22.832031 -6.40625 21.9375 -4.71875 C 21.050781 -3.039062 19.804688 -1.765625 18.203125 -0.890625 C 16.597656 -0.0234375 14.734375 0.40625 12.609375 0.40625 Z M 12.609375 -4.203125 C 15.972656 -4.203125 17.65625 -6.414062 17.65625 -10.84375 C 17.65625 -13.132812 17.222656 -14.8125 16.359375 -15.875 C 15.492188 -16.945312 14.242188 -17.484375 12.609375 -17.484375 C 9.234375 -17.484375 7.546875 -15.269531 7.546875 -10.84375 C 7.546875 -6.414062 9.234375 -4.203125 12.609375 -4.203125 Z M 12.609375 -4.203125 "/></g></g></g><g fill="#ffffff" fill-opacity="1"><g transform="translate(317.225695, 42.855319)"><g><path d="M 3.125 0 L 3.125 -21.6875 L 8.359375 -21.6875 L 8.359375 -18.515625 L 8.765625 -18.40625 C 10.117188 -20.875 12.3125 -22.109375 15.34375 -22.109375 C 17.84375 -22.109375 19.679688 -21.425781 20.859375 -20.0625 C 22.035156 -18.695312 22.625 -16.710938 22.625 -14.109375 L 22.625 0 L 17.171875 0 L 17.171875 -13.4375 C 17.171875 -14.875 16.878906 -15.910156 16.296875 -16.546875 C 15.722656 -17.179688 14.800781 -17.5 13.53125 -17.5 C 11.96875 -17.5 10.75 -16.992188 9.875 -15.984375 C 9.007812 -14.972656 8.578125 -13.390625 8.578125 -11.234375 L 8.578125 0 Z M 3.125 0 "/></g></g></g></g></g></svg>